<?xml version="1.0" encoding="utf-8"?>
<!-- Generator: Adobe Illustrator 18.1.1, SVG Export Plug-In . SVG Version: 6.00 Build 0)  -->
<svg version="1.1" id="Layer_1" xmlns="http://www.w3.org/2000/svg" xmlns:xlink="http://www.w3.org/1999/xlink" x="0px" y="0px"
	 viewBox="0 0 32 32" enable-background="new 0 0 32 32" xml:space="preserve">
<path fill="#FCD700" d="M20,10.1c0-2.2-1.8-4-4-4c-2.2,0-4,1.8-4,4c0,2.2,1.8,4,4,4C18.2,14.1,20,12.3,20,10.1z M14.3,10.1
	c0-0.9,0.7-1.7,1.7-1.7c0.9,0,1.7,0.7,1.7,1.7c0,0.9-0.7,1.7-1.7,1.7C15.1,11.8,14.3,11.1,14.3,10.1z"/>
<path fill="#FCD700" d="M21.3,24c3.2-3.1,6.6-7.9,5.7-14.2C26.1,3.3,21.4,0,16,0S5.9,3.3,5,9.8C4.1,16.1,7.5,20.9,10.7,24
	C4.5,24.5,0,26,0,27.9C0,30.1,7.2,32,16,32s16-1.9,16-4.1C32,26,27.5,24.5,21.3,24z M8.4,10.2C9,6,11.8,3.4,16,3.4
	c4.2,0,7,2.5,7.6,6.8c0.9,6.6-4.6,11.4-7.5,13.5c-0.1,0-0.1,0-0.2,0c-0.1,0-0.1,0-0.1,0C12.9,21.7,7.5,16.9,8.4,10.2z M16,29.7
	c-6.5,0-11-1-12.9-1.9c1.6-0.7,5.1-1.6,10.2-1.8c1.6,1.2,2.8,1.8,2.8,1.8s1.2-0.6,2.8-1.8c5,0.2,8.5,1.1,10.2,1.8
	C27,28.7,22.5,29.7,16,29.7z"/>
</svg>
