<?xml version="1.0" encoding="utf-8"?>
<!-- Generator: Adobe Illustrator 18.1.1, SVG Export Plug-In . SVG Version: 6.00 Build 0)  -->
<svg version="1.1" id="Layer_1" xmlns="http://www.w3.org/2000/svg" xmlns:xlink="http://www.w3.org/1999/xlink" x="0px" y="0px"
	 viewBox="0 0 32 32" enable-background="new 0 0 32 32" xml:space="preserve">
<path fill="#ffcb05" d="M16,4c6.6,0,12,5.4,12,12s-5.4,12-12,12S4,22.6,4,16S9.4,4,16,4 M16,0C7.2,0,0,7.2,0,16s7.2,16,16,16
	s16-7.2,16-16S24.8,0,16,0L16,0z"/>
<path fill="#ffcb05" d="M15,11.8c0-1.4,0-2.8,0-4.1c0-0.7,0.3-1.1,0.9-1.1c0.6,0,0.9,0.4,0.9,1.1c0,2.5,0,5,0,7.4
	c0,0.5,0.1,0.9,0.5,1.2c1.1,1.1,2.2,2.2,3.4,3.3c0.1,0.1,0.3,0.3,0.4,0.4c0.3,0.4,0.2,0.9-0.2,1.2c-0.4,0.3-0.8,0.3-1.2,0
	c-0.3-0.3-0.6-0.6-1-0.9c-1.1-1.1-2.2-2.2-3.2-3.2c-0.3-0.3-0.5-0.7-0.5-1.2C15,14.6,15,13.2,15,11.8z"/>
</svg>
