<?xml version="1.0" encoding="utf-8"?>
<!-- Generator: Adobe Illustrator 18.1.1, SVG Export Plug-In . SVG Version: 6.00 Build 0)  -->
<svg version="1.1" id="Layer_1" xmlns="http://www.w3.org/2000/svg" xmlns:xlink="http://www.w3.org/1999/xlink" x="0px" y="0px"
	 viewBox="0 0 32 32" enable-background="new 0 0 32 32" xml:space="preserve">
<path fill="#FCD700" d="M24.6,4.2c1.8,0,3.2,1.5,3.2,3.2v17.2c0,1.8-1.5,3.2-3.2,3.2H7.4c-1.8,0-3.2-1.5-3.2-3.2V7.4
	c0-1.8,1.5-3.2,3.2-3.2H24.6 M24.6,0.9H7.4c-3.6,0-6.5,2.9-6.5,6.5v17.2c0,3.6,2.9,6.5,6.5,6.5h17.2c3.6,0,6.5-2.9,6.5-6.5V7.4
	C31.1,3.8,28.2,0.9,24.6,0.9L24.6,0.9z"/>
<path fill="#FCD700" d="M16,19.5c-0.3,0-0.6-0.1-0.8-0.3L6,10C5.6,9.5,5.6,8.8,6,8.3c0.4-0.4,1.2-0.4,1.6,0l8.4,8.4l8.3-8.3
	C24.8,8,25.5,8,26,8.4c0.4,0.4,0.4,1.2,0,1.6l-9.1,9.1C16.6,19.4,16.3,19.5,16,19.5z"/>
</svg>
