<?xml version="1.0" encoding="utf-8"?>
<!-- Generator: Adobe Illustrator 18.1.1, SVG Export Plug-In . SVG Version: 6.00 Build 0)  -->
<svg version="1.1" id="Layer_1" xmlns="http://www.w3.org/2000/svg" xmlns:xlink="http://www.w3.org/1999/xlink" x="0px" y="0px"
	 viewBox="0 0 32 32" enable-background="new 0 0 32 32" xml:space="preserve">
<path fill="#FFFFFF" d="M29,6H3C1.3,6,0,4.7,0,3v0c0-1.7,1.3-3,3-3h26c1.7,0,3,1.3,3,3v0C32,4.7,30.7,6,29,6z"/>
<path fill="#FFFFFF" d="M29,32H3c-1.7,0-3-1.3-3-3v0c0-1.7,1.3-3,3-3h26c1.7,0,3,1.3,3,3v0C32,30.7,30.7,32,29,32z"/>
<path fill="#FFFFFF" d="M29,19H3c-1.7,0-3-1.3-3-3v0c0-1.7,1.3-3,3-3h26c1.7,0,3,1.3,3,3v0C32,17.7,30.7,19,29,19z"/>
</svg>
