<?xml version="1.0" encoding="utf-8"?>
<!-- Generator: Adobe Illustrator 18.1.1, SVG Export Plug-In . SVG Version: 6.00 Build 0)  -->
<svg version="1.1" id="Layer_1" xmlns="http://www.w3.org/2000/svg" xmlns:xlink="http://www.w3.org/1999/xlink" x="0px" y="0px"
	 viewBox="0 0 32 32" enable-background="new 0 0 32 32" xml:space="preserve">
<g>
	<g>
		<path fill="#ffcb05" d="M11.1,8.4C5,8.3,0,13.3,0,19.2c0,5.9,5,10.9,11,10.9c6,0,11.1-4.9,11-10.9C22.1,13.3,17.1,8.4,11.1,8.4z
			 M11.2,26.9c-4.3,0-7.7-3.4-7.9-7.4c-0.1-4.4,3.5-7.8,7.5-7.9c4.4-0.1,8,3.5,8,7.7C18.9,23.4,15.4,26.9,11.2,26.9z M16.6,5.2
			c2.4,0,4.7,0,7.1,0c2.4,0,4.7,0,7.1,0c0.7,0,1.2-0.4,1.2-1.2c0-0.3,0-0.7,0-1c0-0.7-0.4-1.1-1.1-1.1c-0.1,0-0.2,0-0.3,0
			c-3.6,0-7.3,0-10.9,0c-1,0-2.1,0-3.1,0c-0.4,0-0.8,0.2-1,0.6c-0.2,0.3-0.2,1.8,0,2.2C15.8,5,16.1,5.2,16.6,5.2z M14.7,7.6
			c1.3,0.4,2.5,1,3.5,1.7c0.2,0.1,0.4,0.2,0.6,0.2c1.8,0,3.6,0,5.4,0c1.8,0,3.6,0,5.5,0c0.7,0,1.1-0.4,1.2-1.1c0-0.4,0-0.8,0-1.2
			c0-0.6-0.4-1-1-1c-0.1,0-0.1,0-0.2,0c-3.5,0-7,0-10.5,0c-1.2,0-2.5,0-3.7,0c-0.5,0-0.9,0.3-1.1,0.8C14.3,7.3,14.3,7.5,14.7,7.6z
			 M29.7,23.6c-2.3,0-4.5,0-6.8,0c-0.3,0-0.4,0.1-0.5,0.3c-0.3,0.7-0.7,1.4-1.1,2c-0.2,0.3-0.4,0.6-0.6,0.9c0.1,0.1,0.2,0.1,0.3,0.1
			c2.9,0,5.8,0,8.7,0c0.6,0,1.1-0.5,1.1-1.1c0-0.4,0-0.7,0-1.1C30.8,24,30.4,23.6,29.7,23.6z M32,16.8c0-0.2,0-0.4,0-0.6
			c0.1-0.8-0.5-1.2-1.3-1.2c-2.5,0-5.1,0-7.7,0c-0.1,0-0.3,0-0.4,0.1c0,0.2,0.1,0.4,0.2,0.5c0.2,0.8,0.4,1.6,0.5,2.4
			c0,0.2,0.1,0.3,0.4,0.3c0.1,0,0.3,0,0.4,0c2.1,0,4.3,0,6.4,0C31.5,18.2,32,17.7,32,16.8z M28.5,10.5c-2.7,0-5.4,0-8.1,0
			c-0.2,0-0.3,0-0.5,0c0,0.1,0.1,0.2,0.2,0.3c0.8,0.8,1.4,1.7,2,2.8c0.1,0.2,0.2,0.2,0.4,0.2c2.1,0,4.2,0,6.3,0c0.6,0,1-0.5,1.1-1.1
			c0-0.3,0-0.7,0-1C29.7,11,29.3,10.5,28.5,10.5z M29.8,21.5c0-0.4,0-0.7,0-1.1c0-0.7-0.4-1.1-1.1-1.1c-1.6,0-3.2,0-4.8,0
			c-0.4,0-0.4,0-0.4,0.4c0,0.6-0.1,1.2-0.2,1.8c-0.1,0.3-0.1,0.7-0.2,1c0.1,0.1,0.2,0.1,0.3,0.1c1.8,0,3.6,0,5.4,0
			C29.3,22.5,29.7,22.1,29.8,21.5z"/>
	</g>
</g>
<g>
	<path fill="#ffcb05" d="M10.6,14.1c0-0.5,0-0.8,0.6-0.8c0.6,0,0.6,0.3,0.6,0.9v0.3c0.5,0.1,1,0.3,1.4,0.6c0.3,0.3,0.5,0.6,0.5,0.9
		c0,0.5-0.4,1-0.9,1c-0.3,0-0.5-0.1-0.8-0.3l-0.3-0.2v1.6c1.5,0.7,2.5,1.4,2.5,2.8c0,1.7-1,2.7-2.5,3v0.5c0,0.5,0,0.7-0.6,0.7
		c-0.6,0-0.6-0.3-0.6-0.8v-0.3c-0.7-0.1-1.3-0.3-1.9-0.6c-0.4-0.2-0.6-0.6-0.6-0.9c0-0.6,0.3-0.9,0.9-0.9c0.2,0,0.5,0.1,0.7,0.2
		c0.2,0.1,0.5,0.3,0.8,0.3v-2.3c-1.1-0.5-2.4-1.2-2.4-2.7c0-1.2,0.9-2.5,2.4-2.7V14.1z M10.6,17.7v-1.2c-0.2,0.1-0.3,0.3-0.3,0.6
		C10.3,17.3,10.4,17.5,10.6,17.7z M11.8,20.4v1.5c0.3-0.2,0.4-0.4,0.4-0.8C12.2,20.9,12.1,20.7,11.8,20.4z"/>
</g>
</svg>
