<?xml version="1.0" encoding="utf-8"?>
<!-- Generator: Adobe Illustrator 18.1.1, SVG Export Plug-In . SVG Version: 6.00 Build 0)  -->
<svg version="1.1" id="Layer_1" xmlns="http://www.w3.org/2000/svg" xmlns:xlink="http://www.w3.org/1999/xlink" x="0px" y="0px"
	 viewBox="0 0 32 32" enable-background="new 0 0 32 32" xml:space="preserve">
<g>
	<g>
		<path fill="#ffcb05" d="M23.3,10.3c-0.1,0.1,0,0.2,0,0.3c0.3,0.6,0.5,1.3,0.8,1.9c0.1,0.3,0.1,0.3-0.2,0.5c-0.6,0.3-1.2,0.6-1.8,1
			c-1.9,1.2-3.5,2.6-4.9,4.4c-1.7,2.2-2.7,4.8-3.3,7.5c-0.3,1.3-0.5,2.6-0.6,4c-0.1,0.7-0.2,1.4-0.1,2h5.6c0.1-0.6,0.1-1.1,0.1-1.7
			c0.1-1.3,0.3-2.6,0.6-3.8c0.4-1.5,1-3,1.9-4.3c1.1-1.5,2.5-2.7,4.1-3.6c0.2-0.1,0.4-0.3,0.7-0.3c0.3,0.8,0.7,1.6,1,2.4
			c0.2,0,0.2-0.2,0.2-0.2c0.9-1.7,1.9-3.4,2.8-5.1c0.4-0.7,0.8-1.4,1.2-2.1v-0.2C28.8,12.1,26.1,11.2,23.3,10.3z M14.4,17.9
			c-0.8-0.9-1.6-1.8-2.6-2.5c-1.1-0.9-2.3-1.6-3.6-2.3c-0.3-0.2-0.3-0.2-0.2-0.5c0.2-0.4,0.4-0.8,0.5-1.2c0.1-0.3,0.3-0.6,0.3-1
			C6,11.2,3.2,12,0.4,12.9V13c0.2,0.3,0.4,0.7,0.6,1c1.1,2,2.2,4,3.2,5.9c0.1,0.2,0.2,0.5,0.4,0.7c0.4-0.8,0.7-1.7,1-2.5
			c2.9,1.4,5,3.5,6.1,6.5c0.1-0.1,0.1-0.1,0.1-0.1c0-0.1,0.1-0.1,0.1-0.2c0.5-2.1,1.3-4.1,2.5-5.9C14.6,18.3,14.6,18.1,14.4,17.9z
			 M10.9,6.9c0.6,0,1.2,0,1.8,0c0.5,0,0.5,0,0.5,0.5c0,1.9,0,3.8,0,5.7c0,0.3,0.1,0.5,0.3,0.7c0.8,0.6,1.5,1.3,2.1,2
			c0.1,0.1,0.2,0.3,0.4,0.3c0.1,0,0.2-0.1,0.3-0.2c0.7-0.8,1.5-1.5,2.3-2.2c0.2-0.1,0.2-0.3,0.2-0.5c0-0.3,0-0.7,0-1
			c0-1.6,0-3.2,0-4.8c0-0.5,0-0.5,0.5-0.5c0.6,0,1.2,0,1.8,0c0.1,0,0.3,0,0.5-0.1c-1.8-2.2-3.6-4.5-5.5-6.8
			c-1.9,2.3-3.8,4.5-5.6,6.7C10.6,7,10.8,6.9,10.9,6.9z"/>
	</g>
</g>
</svg>
