<?xml version="1.0" encoding="utf-8"?>
<!-- Generator: Adobe Illustrator 18.1.1, SVG Export Plug-In . SVG Version: 6.00 Build 0)  -->
<svg version="1.1" id="Layer_1" xmlns="http://www.w3.org/2000/svg" xmlns:xlink="http://www.w3.org/1999/xlink" x="0px" y="0px"
	 viewBox="0 0 32 32" enable-background="new 0 0 32 32" xml:space="preserve">
<g>
	<g>
		<path fill="#ffcb05" d="M31.7,16.7c-0.4-2.3-1.3-4.3-2.8-5.9c-1.8-2-4-3.2-6.6-3.6c-1.6-0.3-3.2-0.2-4.8,0.2
			c-2.3,0.6-4.3,1.9-5.8,3.7c-1.6,1.9-2.4,4-2.6,6.4c-0.1,1.6,0,3.2,0.6,4.7c0.9,2.6,2.5,4.6,4.8,6.1c2.2,1.4,4.6,1.9,7.2,1.6
			c2.2-0.2,4.1-1,5.8-2.4c2-1.6,3.4-3.8,4-6.3c0.1-0.5,0.2-1.1,0.3-1.6v-2.2C31.8,17.2,31.8,16.9,31.7,16.7z M20.5,27.1
			c-4.7,0-8.6-3.9-8.5-8.6c0-4.7,3.9-8.6,8.5-8.5c4.6,0,8.5,3.9,8.4,8.8C28.8,23.3,25.1,27,20.5,27.1z M2.5,15c1.8,0,3.6,0,5.4,0
			c0.4,0,0.4,0,0.5-0.3c0.3-0.8,0.6-1.6,1-2.3c0.1-0.1,0.1-0.2,0.1-0.3c-0.1-0.1-0.2,0-0.3,0c-2,0-4,0-6,0c-1,0-2,0-3,0v0.1
			c0.6,0.9,1.2,1.8,1.8,2.7C2.1,15,2.2,15,2.5,15z M8.4,22.3C8.3,22,8.3,22,8,22c-1.6,0-3.2,0-4.8,0c-1,0-2,0-3,0v0.1
			C0.8,23,1.4,23.9,2,24.8C2.1,24.9,2.2,25,2.4,25c2.3,0,4.6,0,6.8,0c0.1,0,0.2,0,0.3-0.1c-0.1-0.1-0.1-0.3-0.2-0.5
			C8.9,23.8,8.6,23.1,8.4,22.3z M18.7,5c0.1,0,0.2,0,0.2,0.1c0,0.2,0,0.4,0,0.6C19,6,19,6,19.3,6c0.3,0,0.6-0.1,0.9-0.1
			c0.5,0,0.9,0,1.4,0.1c0.3,0,0.4,0,0.4-0.3c0-0.2,0-0.4,0-0.6C22,5,22.1,5,22.1,5c0.5-0.1,0.8-0.3,0.8-0.9c0-0.5,0-0.9,0-1.4
			c0-0.4-0.3-0.8-0.8-0.8c-1.1,0-2.3,0-3.4,0C18.3,2,18,2.3,18,2.8c0,0.5,0,1,0,1.5C18,4.7,18.3,5,18.7,5z M7.5,17c-1.7,0-3.3,0-5,0
			c-0.1,0-0.2,0-0.3,0c0,0.1,0.1,0.2,0.1,0.3C2.9,18.1,3.4,19,4,19.8C4.1,20,4.2,20,4.4,20c1.1,0,2.1,0,3.2,0c0.3,0,0.4,0,0.3-0.4
			c-0.1-0.7-0.1-1.5,0-2.2C7.9,17,7.9,17,7.5,17z M29.6,9.7c0.4-0.5,0.7-1,1.1-1.6C31,7.7,30.9,7.3,30.5,7c-0.3-0.3-0.7-0.5-1.1-0.8
			c-0.5-0.3-0.9-0.3-1.3,0.2c-0.3,0.4-0.6,0.8-0.9,1.2c-0.1,0.1-0.1,0.2-0.1,0.3c0.8,0.5,1.5,1.2,2.3,1.9
			C29.5,9.8,29.6,9.7,29.6,9.7z M21.7,16.9c-0.7-0.5-1.4-0.6-2.1-0.2c-0.7,0.4-1.1,1-1.1,1.8c0,0.2,0,0.3,0,0.5c0.4,1.4,2,2,3.2,1.1
			c0.2-0.1,0.4-0.2,0.6-0.3c1.6-0.3,3.1-0.7,4.7-1c0.1,0,0.2,0,0.3-0.1c0.1,0,0.2-0.1,0.2-0.3c0-0.1-0.1-0.2-0.2-0.3
			c-0.1,0-0.2-0.1-0.3-0.1c-1.6-0.3-3.1-0.7-4.7-1C22,17.1,21.9,17.1,21.7,16.9z"/>
	</g>
</g>
</svg>
