<?xml version="1.0" encoding="utf-8"?>
<!-- Generator: Adobe Illustrator 21.0.0, SVG Export Plug-In . SVG Version: 6.00 Build 0)  -->
<svg version="1.1" id="Layer_1" xmlns="http://www.w3.org/2000/svg" xmlns:xlink="http://www.w3.org/1999/xlink" x="0px" y="0px"
	 viewBox="0 0 560 140" style="enable-background:new 0 0 560 140;" xml:space="preserve">
<g>
	<g>
		<path style="fill:#C6093B;" d="M108.84,106.88c-9.63-0.23-18.55-4.9-22.38-14v33.71c0,1.28-0.7,2.1-1.97,2.1
			c-1.27,0-2.09-0.82-2.09-2.1V47.97c0-1.28,0.81-2.1,2.09-2.1c1.28,0,1.97,0.82,1.97,2.1v11.55c1.74-4.66,4.64-7.81,8.46-10.38
			c7.31-4.32,16.58-5.37,25.4-1.75c12.52,5.13,18.79,16.68,18.44,30.33c-0.35,11.78-6.61,22.63-17.63,26.95
			C117.31,106.29,113.25,106.99,108.84,106.88z M86.46,71.07v10.15c0.81,12.01,9.39,21.11,22.38,21.58
			c9.86,0.12,19.83-5.13,23.77-14.81c1.27-3.03,1.97-6.77,2.09-10.15c0.35-8.98-2.67-17.26-10.21-23.33
			c-4.06-3.15-9.04-4.9-14.26-5.25c-4.06-0.12-7.89,0.82-11.72,2.56C90.87,55.56,86.92,62.55,86.46,71.07z"/>
		<path style="fill:#C6093B;" d="M210.68,75.73c0.12,1.63-0.47,3.85-3.59,3.85H154.9c0.58,5.02,2.44,9.8,5.91,13.88
			c4.87,5.83,12.18,8.86,19.72,8.98c6.38,0.12,12.88-1.87,18.21-5.95c2.09-1.63,4.87,0.7,2.67,2.92c-5.22,4.9-12.87,7.11-20.53,7
			c-9.04-0.12-17.97-3.5-23.31-10.38c-4.87-6.3-7.42-13.53-6.96-22.28c0.58-12.6,8.7-23.91,21.22-27.41c5.33-1.4,11.71-1.52,17.51,0
			C202.33,49.84,210.45,60.69,210.68,75.73z M154.78,75.73h51.96c-0.23-12.83-7.07-22.51-18.67-25.66
			c-4.64-1.16-10.09-1.16-14.84,0.12C161.62,53.34,154.9,64.07,154.78,75.73z"/>
		<path style="fill:#C6093B;" d="M282.49,75.73c0.12,1.63-0.47,3.85-3.6,3.85H226.7c0.58,5.02,2.44,9.8,5.91,13.88
			c4.87,5.83,12.18,8.86,19.72,8.98c6.38,0.12,12.87-1.87,18.21-5.95c2.08-1.63,4.87,0.7,2.67,2.92c-5.22,4.9-12.87,7.11-20.53,7
			c-9.05-0.12-17.98-3.5-23.31-10.38c-4.87-6.3-7.42-13.53-6.96-22.28c0.58-12.6,8.7-23.91,21.22-27.41c5.33-1.4,11.71-1.52,17.51,0
			C274.13,49.84,282.25,60.69,282.49,75.73z M226.59,75.73h51.95c-0.23-12.83-7.07-22.51-18.67-25.66
			c-4.64-1.16-10.09-1.16-14.84,0.12C233.43,53.34,226.7,64.07,226.59,75.73z"/>
		<path style="fill:#C6093B;" d="M324.25,45.41c4.99,0.12,9.74,1.28,13.91,3.73c3.83,2.56,6.73,5.72,8.47,10.38V31.41
			c0-1.28,0.69-2.1,1.97-2.1c1.28,0,2.09,0.82,2.09,2.1v72.67c0,1.28-0.81,2.1-2.09,2.1c-1.27,0-1.97-0.82-1.97-2.1V92.53
			c-1.74,4.67-4.64,8.05-8.47,10.61c-7.31,4.31-16.58,5.37-25.39,1.75c-12.53-5.13-18.79-16.68-18.44-30.33
			c0.35-11.78,6.61-22.63,17.63-26.94C315.78,45.99,319.84,45.29,324.25,45.41z M346.63,81.22V71.07
			c-0.47-8.52-4.41-15.51-12.06-19.25c-3.36-1.52-6.73-2.22-10.32-2.33c-9.86-0.12-19.83,5.13-23.77,14.81
			c-1.27,3.03-1.97,6.77-2.09,10.15c-0.34,8.98,2.67,17.26,10.2,23.33c4.06,3.15,9.05,4.9,14.27,5.25
			c4.06,0.12,7.88-0.82,11.71-2.57C342.22,96.73,346.16,89.73,346.63,81.22z"/>
	</g>
	<g>
		<g>
			<path style="fill:#C6093B;" d="M450.67,96.85c-5.17-6.1-7.35-13.47-7-22.11c1.15-12.78,8.61-23.49,21.23-27.06
				c2.76-0.81,5.85-1.04,8.72-1.04c2.75,0,5.51,0.23,8.49,1.04c12.51,3.57,20.32,14.16,21.35,27.06c0.46,8.64-1.83,16.01-6.89,22.11
				c-5.63,6.79-13.89,10.36-22.96,10.36C464.44,107.21,456.29,103.64,450.67,96.85z M473.51,54.47c-2.18,0-4.36,0.35-6.08,0.81
				c-9.64,2.53-15.27,11.52-15.27,21.88c0,5.18,1.61,10.6,5.05,14.63c4.02,4.84,10.1,7.6,16.41,7.6c6.2,0,12.51-2.99,16.53-7.6
				c3.21-3.91,5.05-9.44,5.05-14.4c0-10.48-5.63-19.57-15.38-22.11C477.99,54.82,475.69,54.47,473.51,54.47z"/>
		</g>
		<g>
			<path style="fill:#C6093B;" d="M536.01,73.78c0.47,0.64,0.7,1.37,0.8,2.12l20.85-23.27c2.98-4.03-3.78-8.52-6.77-4.49
				l-18.32,20.97L536.01,73.78z"/>
			<path style="fill:#C6093B;" d="M557.89,100.53L536.8,77.25c-0.12,0.78-0.38,1.54-0.9,2.19l-3.37,4.22l19.04,21.94
				C555.25,109.74,561.45,104.57,557.89,100.53z"/>
		</g>
		<g>
			<path style="fill:#FFD700;" d="M509.16,108.59c-0.97,0-1.95-0.32-2.76-0.97c-1.92-1.53-2.23-4.32-0.7-6.24l19.85-24.91
				L507.01,51.3c-1.45-1.97-1.03-4.75,0.94-6.21c1.97-1.45,4.76-1.03,6.21,0.94l20.55,27.92c1.19,1.62,1.15,3.83-0.1,5.4
				l-21.98,27.57C511.76,108.02,510.46,108.59,509.16,108.59z"/>
		</g>
	</g>
	<g>
		<path style="fill:#C6093B;" d="M4.64,89.13c2.8,9.68,15.97,13.29,24.72,14.11c1.75,0.23,3.73,0.35,5.48,0.35
			c11.54,0,29.38-3.96,29.38-18.42c0-26.82-61.56-2.68-61.56-34.16c0-11.54,11.31-17.25,21.1-19.35c3.15-0.58,6.53-0.93,9.79-0.93
			c11.19,0,27.28,2.56,31.71,14.69c1.17,2.8-2.45,3.61-3.26,1.28c-3.96-10.96-18.42-12.47-28.33-12.47c-0.93,0-1.87,0.12-2.8,0.12
			c-8.39,0.58-20.52,3.96-23.55,12.83c-0.58,1.17-0.82,2.68-0.82,3.96c0,26.7,61.56,3.38,61.56,33.93c0,17.14-19.12,21.8-33.23,21.8
			c-11.89,0-29.96-3.27-33.69-16.79C0.44,87.74,3.94,86.69,4.64,89.13z"/>
	</g>
	<g>
		<path style="fill:#C6093B;" d="M407.35,106.47H377.2c-2.32,0-4.29-1.86-4.29-4.17v-65.4c0-2.32,1.97-4.17,4.29-4.17h27.48
			c10.78,0,27.48,3.59,27.48,20.06c0,6.03-2.9,11.36-8.93,13.8c8.47,2.67,14.26,8.58,14.26,17.97
			C437.5,101.83,421.96,106.47,407.35,106.47z M381.37,40.25v23.66h23.66c9.97,0,18.67-2.67,18.67-11.13
			c0-9.97-11.83-12.52-19.02-12.52H381.37z M381.37,98.93h25.98c10.21,0,21.45-2.67,21.45-14.38c0-9.16-7.89-13.1-17.98-13.1h-29.46
			V98.93z"/>
	</g>
</g>
</svg>
