<?xml version="1.0" encoding="utf-8"?>
<!-- Generator: Adobe Illustrator 18.1.1, SVG Export Plug-In . SVG Version: 6.00 Build 0)  -->
<svg version="1.1" id="Layer_1" xmlns="http://www.w3.org/2000/svg" xmlns:xlink="http://www.w3.org/1999/xlink" x="0px" y="0px"
	 viewBox="0 0 32 32" enable-background="new 0 0 32 32" xml:space="preserve">
<path fill="#FCD700" d="M20.1,31.7c-0.5,0-0.9-0.1-1.3-0.4C5.9,23.7,2.6,11.5,2.1,9.1C2,8.5,2.1,7.8,2.5,7.2l3.1-4.9
	c0.3-0.5,0.9-0.9,1.5-1.1l2.8-0.8C11.2,0,12.5,0.7,13,1.9l1.9,4.7c0.4,1,0.1,2.2-0.7,2.9l-2.7,2.2L19.4,22l2.4-2
	c0.9-0.7,2.4-0.7,3.3,0l4,3.3c1,0.9,1.2,2.4,0.5,3.5L27.9,29c-0.3,0.5-0.8,0.8-1.4,1l-5.7,1.6C20.6,31.7,20.3,31.7,20.1,31.7z
	 M5.1,8.7c0.6,2.5,3.7,13.2,15.1,20l5.4-1.5l1.3-1.8l-3.4-2.8l-2.5,2c-1.1,0.9-2.8,0.7-3.7-0.4L8.8,13.3c-0.9-1.1-0.7-2.7,0.4-3.6
	L12,7.4l-1.6-4.1L8,4L5.1,8.7z"/>
</svg>
